<mxfile host="65bd71144e">
    <diagram id="y2iRXe6Vf7PfoEJopRq3" name="Page-1">
        <mxGraphModel dx="1935" dy="1438" grid="1" gridSize="10" guides="1" tooltips="1" connect="1" arrows="1" fold="1" page="1" pageScale="1" pageWidth="850" pageHeight="1100" background="#FFFFFF" math="0" shadow="0">
            <root>
                <mxCell id="0"/>
                <mxCell id="1" parent="0"/>
                <mxCell id="150" value="" style="rounded=1;whiteSpace=wrap;html=1;fillColor=none;" vertex="1" parent="1">
                    <mxGeometry x="40" y="880" width="267.5" height="220" as="geometry"/>
                </mxCell>
                <object placeholders="1" c4Name="User" c4Type="Person" label="%c4Name%&#xa;[%c4Type%]" id="2">
                    <mxCell style="fontSize=16;dashed=0;whiteSpace=wrap;fillColor=#B1DDF0;strokeColor=#10739e;shape=mxgraph.c4.person2;align=center;metaEdit=1;points=[[0.5,0,0],[1,0.5,0],[1,0.75,0],[0.75,1,0],[0.5,1,0],[0.25,1,0],[0,0.75,0],[0,0.5,0]];resizable=0;labelBackgroundColor=none;labelBorderColor=none;textShadow=0;fontStyle=0" parent="1" vertex="1">
                        <mxGeometry x="80" y="600" width="200" height="180" as="geometry"/>
                    </mxCell>
                </object>
                <object placeholders="1" c4Name="InterviewCoach" c4Type="SystemScopeBoundary" c4Application="Software System" label="&lt;font style=&quot;font-size: 16px&quot;&gt;&lt;b&gt;&lt;div style=&quot;text-align: left&quot;&gt;%c4Name%&lt;/div&gt;&lt;/b&gt;&lt;/font&gt;&lt;div style=&quot;text-align: left&quot;&gt;[%c4Application%]&lt;/div&gt;" id="7">
                    <mxCell style="rounded=1;fontSize=11;whiteSpace=wrap;html=1;dashed=1;arcSize=20;fillColor=none;strokeColor=#76608A;fontColor=#ffffff;labelBackgroundColor=none;align=left;verticalAlign=bottom;labelBorderColor=none;spacingTop=0;spacing=10;dashPattern=8 4;metaEdit=1;rotatable=0;perimeter=rectanglePerimeter;noLabel=0;labelPadding=0;allowArrows=0;connectable=0;expand=0;recursiveResize=0;editable=1;pointerEvents=0;absoluteArcSize=1;points=[[0.25,0,0],[0.5,0,0],[0.75,0,0],[1,0.25,0],[1,0.5,0],[1,0.75,0],[0.75,1,0],[0.5,1,0],[0.25,1,0],[0,0.75,0],[0,0.5,0],[0,0.25,0]];" parent="1" vertex="1">
                        <mxGeometry x="370" y="330" width="1610" height="850" as="geometry"/>
                    </mxCell>
                </object>
                <object placeholders="1" c4Name="Presentation Layer" c4Type="ContainerScopeBoundary" c4Application="Container" label="&lt;font style=&quot;font-size: 16px&quot;&gt;&lt;b&gt;&lt;div style=&quot;text-align: left&quot;&gt;%c4Name%&lt;/div&gt;&lt;/b&gt;&lt;/font&gt;&lt;div style=&quot;text-align: left&quot;&gt;[%c4Application%]&lt;/div&gt;" id="77">
                    <mxCell style="rounded=1;fontSize=11;whiteSpace=wrap;html=1;dashed=1;arcSize=20;fillColor=none;labelBackgroundColor=none;align=left;verticalAlign=bottom;labelBorderColor=none;spacingTop=0;spacing=10;dashPattern=8 4;metaEdit=1;rotatable=0;perimeter=rectanglePerimeter;noLabel=0;labelPadding=0;allowArrows=0;connectable=0;expand=0;recursiveResize=0;editable=1;pointerEvents=0;absoluteArcSize=1;points=[[0.25,0,0],[0.5,0,0],[0.75,0,0],[1,0.25,0],[1,0.5,0],[1,0.75,0],[0.75,1,0],[0.5,1,0],[0.25,1,0],[0,0.75,0],[0,0.5,0],[0,0.25,0]];" parent="1" vertex="1">
                        <mxGeometry x="380" y="340" width="300" height="210" as="geometry"/>
                    </mxCell>
                </object>
                <object placeholders="1" c4Name="Presentation Layer" c4Type="ContainerScopeBoundary" c4Application="Container" label="&lt;font style=&quot;font-size: 16px&quot;&gt;&lt;b&gt;&lt;div style=&quot;text-align: left&quot;&gt;%c4Name%&lt;/div&gt;&lt;/b&gt;&lt;/font&gt;&lt;div style=&quot;text-align: left&quot;&gt;[%c4Application%]&lt;/div&gt;" id="8">
                    <mxCell style="rounded=1;fontSize=11;whiteSpace=wrap;html=1;dashed=1;arcSize=20;fillColor=none;labelBackgroundColor=none;align=left;verticalAlign=bottom;labelBorderColor=none;spacingTop=0;spacing=10;dashPattern=8 4;metaEdit=1;rotatable=0;perimeter=rectanglePerimeter;noLabel=0;labelPadding=0;allowArrows=0;connectable=0;expand=0;recursiveResize=0;editable=1;pointerEvents=0;absoluteArcSize=1;points=[[0.25,0,0],[0.5,0,0],[0.75,0,0],[1,0.25,0],[1,0.5,0],[1,0.75,0],[0.75,1,0],[0.5,1,0],[0.25,1,0],[0,0.75,0],[0,0.5,0],[0,0.25,0]];" vertex="1" parent="1">
                        <mxGeometry x="380" y="340" width="300" height="210" as="geometry"/>
                    </mxCell>
                </object>
                <object placeholders="1" c4Name="Database" c4Type="Component" c4Technology="MongoDB" c4Description="Long-term storage for storing user progress" label="%c4Name%&lt;br&gt;[%c4Type%:&amp;nbsp;%c4Technology%]&lt;br&gt;&lt;br&gt;%c4Description%" id="14">
                    <mxCell style="shape=cylinder3;size=15;whiteSpace=wrap;boundedLbl=1;rounded=0;labelBackgroundColor=none;fillColor=#1ba1e2;fontSize=16;fontColor=#ffffff;align=center;strokeColor=#006EAF;metaEdit=1;points=[[0.5,0,0],[1,0.25,0],[1,0.5,0],[1,0.75,0],[0.5,1,0],[0,0.75,0],[0,0.5,0],[0,0.25,0]];resizable=0;html=1;" parent="1" vertex="1">
                        <mxGeometry x="1200" y="980" width="240" height="120" as="geometry"/>
                    </mxCell>
                </object>
                <object placeholders="1" c4Name="Session Storage" c4Type="Component" c4Technology="Redis" c4Description="Fast storage for active sessions" label="%c4Name%&lt;br&gt;[%c4Type%:&amp;nbsp;%c4Technology%]&lt;br&gt;&lt;br&gt;%c4Description%" id="15">
                    <mxCell style="shape=cylinder3;size=15;whiteSpace=wrap;boundedLbl=1;rounded=0;labelBackgroundColor=none;fillColor=#23A2D9;fontSize=16;fontColor=#ffffff;align=center;strokeColor=#0E7DAD;metaEdit=1;points=[[0.5,0,0],[1,0.25,0],[1,0.5,0],[1,0.75,0],[0.5,1,0],[0,0.75,0],[0,0.5,0],[0,0.25,0]];resizable=0;html=1;" parent="1" vertex="1">
                        <mxGeometry x="840" y="980" width="240" height="120" as="geometry"/>
                    </mxCell>
                </object>
                <object placeholders="1" c4Name="Telegram Server" c4Type="Software System" label="%c4Name%&#xa;[%c4Type%]" id="21">
                    <mxCell style="rounded=1;whiteSpace=wrap;labelBackgroundColor=none;fillColor=#647687;fontColor=#ffffff;align=center;arcSize=10;strokeColor=#314354;metaEdit=1;resizable=0;points=[[0.25,0,0],[0.5,0,0],[0.75,0,0],[1,0.25,0],[1,0.5,0],[1,0.75,0],[0.75,1,0],[0.5,1,0],[0.25,1,0],[0,0.75,0],[0,0.5,0],[0,0.25,0]];fontSize=16;" parent="1" vertex="1">
                        <mxGeometry x="60" y="370" width="240" height="120" as="geometry"/>
                    </mxCell>
                </object>
                <object placeholders="1" c4Name="Bot Controller" c4Type="Component" c4Technology="Node.js Telegram Bot API Library" c4Description="Routes user commands to appropriate handlers" label="%c4Name%&#xa;[%c4Type%: %c4Technology%]&#xa;&#xa;%c4Description%" id="23">
                    <mxCell style="rounded=1;whiteSpace=wrap;labelBackgroundColor=none;fillColor=#0050EF;align=center;arcSize=6;strokeColor=#001DBC;metaEdit=1;resizable=0;points=[[0.25,0,0],[0.5,0,0],[0.75,0,0],[1,0.25,0],[1,0.5,0],[1,0.75,0],[0.75,1,0],[0.5,1,0],[0.25,1,0],[0,0.75,0],[0,0.5,0],[0,0.25,0]];fontSize=16;fontColor=#ffffff;shadow=0;glass=0;" parent="1" vertex="1">
                        <mxGeometry x="410" y="370" width="240" height="120" as="geometry"/>
                    </mxCell>
                </object>
                <object placeholders="1" c4Name="Bot Service" c4Type="Component" c4Technology="Node.js" c4Description="Initializes and orchestrates different bot clients" label="%c4Name%&#xa;[%c4Type%: %c4Technology%]&#xa;&#xa;%c4Description%" id="24">
                    <mxCell style="rounded=1;whiteSpace=wrap;labelBackgroundColor=none;fillColor=#0050ef;align=center;arcSize=6;strokeColor=#001DBC;metaEdit=1;resizable=0;points=[[0.25,0,0],[0.5,0,0],[0.75,0,0],[1,0.25,0],[1,0.5,0],[1,0.75,0],[0.75,1,0],[0.5,1,0],[0.25,1,0],[0,0.75,0],[0,0.5,0],[0,0.25,0]];fontColor=#ffffff;fontSize=16;" parent="1" vertex="1">
                        <mxGeometry x="840" y="370" width="240" height="120" as="geometry"/>
                    </mxCell>
                </object>
                <object placeholders="1" c4Name="Bot Client" c4Type="Component" c4Technology="Node.js" c4Description="Encapsulates state and provides actions for specific user" label="%c4Name%&#xa;[%c4Type%: %c4Technology%]&#xa;&#xa;%c4Description%" id="26">
                    <mxCell style="rounded=1;whiteSpace=wrap;labelBackgroundColor=none;fillColor=#0050ef;align=center;arcSize=6;strokeColor=#001DBC;metaEdit=1;resizable=0;points=[[0.25,0,0],[0.5,0,0],[0.75,0,0],[1,0.25,0],[1,0.5,0],[1,0.75,0],[0.75,1,0],[0.5,1,0],[0.25,1,0],[0,0.75,0],[0,0.5,0],[0,0.25,0]];fontColor=#ffffff;fontSize=16;" parent="1" vertex="1">
                        <mxGeometry x="1200" y="370" width="240" height="120" as="geometry"/>
                    </mxCell>
                </object>
                <object placeholders="1" c4Name="Session Orchestrator" c4Type="Component" c4Technology="Node.js" c4Description="Coordinates transitions between questions" label="%c4Name%&#xa;[%c4Type%: %c4Technology%]&#xa;&#xa;%c4Description%" id="27">
                    <mxCell style="rounded=1;whiteSpace=wrap;labelBackgroundColor=none;fillColor=#0050ef;align=center;arcSize=6;strokeColor=#001DBC;metaEdit=1;resizable=0;points=[[0.25,0,0],[0.5,0,0],[0.75,0,0],[1,0.25,0],[1,0.5,0],[1,0.75,0],[0.75,1,0],[0.5,1,0],[0.25,1,0],[0,0.75,0],[0,0.5,0],[0,0.25,0]];fontColor=#ffffff;fontSize=16;" parent="1" vertex="1">
                        <mxGeometry x="840" y="570" width="240" height="120" as="geometry"/>
                    </mxCell>
                </object>
                <object placeholders="1" c4Name="Checklist Service" c4Type="Component" c4Technology="Node.js" c4Description="Manages topic selection for interviews" label="%c4Name%&#xa;[%c4Type%: %c4Technology%]&#xa;&#xa;%c4Description%" id="28">
                    <mxCell style="rounded=1;whiteSpace=wrap;labelBackgroundColor=none;fillColor=#0050ef;align=center;arcSize=6;strokeColor=#001DBC;metaEdit=1;resizable=0;points=[[0.25,0,0],[0.5,0,0],[0.75,0,0],[1,0.25,0],[1,0.5,0],[1,0.75,0],[0.75,1,0],[0.5,1,0],[0.25,1,0],[0,0.75,0],[0,0.5,0],[0,0.25,0]];fontColor=#ffffff;fontSize=16;" parent="1" vertex="1">
                        <mxGeometry x="1610" y="370" width="240" height="120" as="geometry"/>
                    </mxCell>
                </object>
                <object placeholders="1" c4Name="Question Flow Service" c4Type="Component" c4Technology="Node.js" c4Description="Manages question sequence logic" label="%c4Name%&#xa;[%c4Type%: %c4Technology%]&#xa;&#xa;%c4Description%" id="29">
                    <mxCell style="rounded=1;whiteSpace=wrap;labelBackgroundColor=none;fillColor=#0050ef;align=center;arcSize=6;strokeColor=#001DBC;metaEdit=1;resizable=0;points=[[0.25,0,0],[0.5,0,0],[0.75,0,0],[1,0.25,0],[1,0.5,0],[1,0.75,0],[0.75,1,0],[0.5,1,0],[0.25,1,0],[0,0.75,0],[0,0.5,0],[0,0.25,0]];fontColor=#ffffff;fontSize=16;" parent="1" vertex="1">
                        <mxGeometry x="1610" y="570" width="240" height="120" as="geometry"/>
                    </mxCell>
                </object>
                <object placeholders="1" c4Name="Session Repository" c4Type="Component" c4Technology="Node.js" c4Description="Persists and retrieves user session data" label="%c4Name%&#xa;[%c4Type%: %c4Technology%]&#xa;&#xa;%c4Description%" id="30">
                    <mxCell style="rounded=1;whiteSpace=wrap;labelBackgroundColor=none;fillColor=#0050ef;align=center;arcSize=6;strokeColor=#001DBC;metaEdit=1;resizable=0;points=[[0.25,0,0],[0.5,0,0],[0.75,0,0],[1,0.25,0],[1,0.5,0],[1,0.75,0],[0.75,1,0],[0.5,1,0],[0.25,1,0],[0,0.75,0],[0,0.5,0],[0,0.25,0]];fontColor=#ffffff;fontSize=16;" parent="1" vertex="1">
                        <mxGeometry x="840" y="800" width="240" height="120" as="geometry"/>
                    </mxCell>
                </object>
                <object placeholders="1" c4Name="Progress Repository" c4Type="Component" c4Technology="Node.js" c4Description="Persists and retrieves user progress data" label="%c4Name%&#xa;[%c4Type%: %c4Technology%]&#xa;&#xa;%c4Description%" id="31">
                    <mxCell style="rounded=1;whiteSpace=wrap;labelBackgroundColor=none;fillColor=#0050ef;align=center;arcSize=6;strokeColor=#001DBC;metaEdit=1;resizable=0;points=[[0.25,0,0],[0.5,0,0],[0.75,0,0],[1,0.25,0],[1,0.5,0],[1,0.75,0],[0.75,1,0],[0.5,1,0],[0.25,1,0],[0,0.75,0],[0,0.5,0],[0,0.25,0]];fontColor=#ffffff;fontSize=16;" parent="1" vertex="1">
                        <mxGeometry x="1200" y="800" width="240" height="120" as="geometry"/>
                    </mxCell>
                </object>
                <object placeholders="1" c4Type="Relationship" c4Technology="Telegram Client" c4Description="Uses" label="&lt;div style=&quot;text-align: left&quot;&gt;&lt;div style=&quot;text-align: center&quot;&gt;&lt;b&gt;%c4Description%&lt;/b&gt;&lt;/div&gt;&lt;div style=&quot;text-align: center&quot;&gt;[%c4Technology%]&lt;/div&gt;&lt;/div&gt;" id="32">
                    <mxCell style="endArrow=blockThin;html=1;fontSize=14;fontColor=#404040;strokeWidth=1;endFill=1;strokeColor=#828282;elbow=vertical;metaEdit=1;endSize=14;startSize=14;jumpStyle=arc;jumpSize=16;rounded=0;edgeStyle=orthogonalEdgeStyle;exitX=0.5;exitY=0;exitDx=0;exitDy=0;exitPerimeter=0;entryX=0.5;entryY=1;entryDx=0;entryDy=0;entryPerimeter=0;" parent="1" source="2" target="21" edge="1">
                        <mxGeometry width="240" relative="1" as="geometry">
                            <mxPoint x="780" y="660" as="sourcePoint"/>
                            <mxPoint x="1020" y="660" as="targetPoint"/>
                        </mxGeometry>
                    </mxCell>
                </object>
                <object placeholders="1" c4Type="Relationship" c4Description="Delegates user&#xa;command &#xa;handling to" label="&lt;div style=&quot;text-align: left&quot;&gt;&lt;div style=&quot;text-align: center&quot;&gt;&lt;b&gt;%c4Description%&lt;/b&gt;&lt;/div&gt;&lt;/div&gt;" id="36">
                    <mxCell style="endArrow=blockThin;html=1;fontSize=14;fontColor=#404040;strokeWidth=1;endFill=1;strokeColor=#828282;elbow=vertical;metaEdit=1;endSize=14;startSize=14;jumpStyle=arc;jumpSize=16;rounded=0;edgeStyle=orthogonalEdgeStyle;exitX=1;exitY=0.5;exitDx=0;exitDy=0;exitPerimeter=0;entryX=0;entryY=0.5;entryDx=0;entryDy=0;entryPerimeter=0;" parent="1" source="23" target="24" edge="1">
                        <mxGeometry x="-0.0526" width="240" relative="1" as="geometry">
                            <mxPoint x="310" y="440" as="sourcePoint"/>
                            <mxPoint x="470" y="590" as="targetPoint"/>
                            <Array as="points">
                                <mxPoint x="720" y="430"/>
                                <mxPoint x="720" y="430"/>
                            </Array>
                            <mxPoint as="offset"/>
                        </mxGeometry>
                    </mxCell>
                </object>
                <object placeholders="1" c4Type="Relationship" c4Technology="HTTPS&#xa;polling" c4Description="Delivers&#xa;updates to" label="&lt;div style=&quot;text-align: left&quot;&gt;&lt;div style=&quot;text-align: center&quot;&gt;&lt;b&gt;%c4Description%&lt;/b&gt;&lt;/div&gt;&lt;div style=&quot;text-align: center&quot;&gt;[%c4Technology%]&lt;/div&gt;&lt;/div&gt;" id="35">
                    <mxCell style="endArrow=blockThin;html=1;fontSize=14;fontColor=#404040;strokeWidth=1;endFill=1;strokeColor=#828282;elbow=vertical;metaEdit=1;endSize=14;startSize=14;jumpStyle=arc;jumpSize=16;rounded=0;edgeStyle=orthogonalEdgeStyle;entryX=0;entryY=0.5;entryDx=0;entryDy=0;entryPerimeter=0;" parent="1" target="23" edge="1">
                        <mxGeometry x="-0.276" width="240" relative="1" as="geometry">
                            <mxPoint x="300" y="430" as="sourcePoint"/>
                            <mxPoint x="190" y="500" as="targetPoint"/>
                            <mxPoint as="offset"/>
                        </mxGeometry>
                    </mxCell>
                </object>
                <object placeholders="1" c4Type="Relationship" c4Description="e.g. Visits pages" label="&lt;div style=&quot;text-align: left&quot;&gt;&lt;div style=&quot;text-align: center&quot;&gt;&lt;b&gt;%c4Description%&lt;/b&gt;&lt;/div&gt;" id="76">
                    <mxCell style="endArrow=blockThin;html=1;fontSize=10;fontColor=#404040;strokeWidth=1;endFill=1;strokeColor=#828282;elbow=vertical;metaEdit=1;endSize=14;startSize=14;jumpStyle=arc;jumpSize=16;rounded=0;edgeStyle=orthogonalEdgeStyle;exitX=0.331;exitY=0.997;exitDx=0;exitDy=0;exitPerimeter=0;entryX=0.5;entryY=0;entryDx=0;entryDy=0;entryPerimeter=0;" parent="1" source="26" target="27" edge="1">
                        <mxGeometry width="240" relative="1" as="geometry">
                            <mxPoint x="1030" y="740" as="sourcePoint"/>
                            <mxPoint x="1270" y="740" as="targetPoint"/>
                        </mxGeometry>
                    </mxCell>
                </object>
                <object placeholders="1" c4Type="Relationship" c4Description="Uses" label="&lt;div style=&quot;text-align: left&quot;&gt;&lt;div style=&quot;text-align: center&quot;&gt;&lt;b&gt;%c4Description%&lt;/b&gt;&lt;/div&gt;&lt;/div&gt;" id="50">
                    <mxCell style="endArrow=blockThin;html=1;fontSize=14;fontColor=#404040;strokeWidth=1;endFill=1;strokeColor=#828282;elbow=vertical;metaEdit=1;endSize=14;startSize=14;jumpStyle=arc;jumpSize=16;rounded=0;edgeStyle=orthogonalEdgeStyle;exitX=0.5;exitY=1;exitDx=0;exitDy=0;exitPerimeter=0;entryX=0.5;entryY=0;entryDx=0;entryDy=0;entryPerimeter=0;" parent="1" source="27" target="30" edge="1">
                        <mxGeometry width="240" relative="1" as="geometry">
                            <mxPoint x="1030" y="740" as="sourcePoint"/>
                            <mxPoint x="1270" y="740" as="targetPoint"/>
                        </mxGeometry>
                    </mxCell>
                </object>
                <object placeholders="1" c4Name="Infrastructure Layer" c4Type="ContainerScopeBoundary" c4Application="Container" label="&lt;font style=&quot;font-size: 16px&quot;&gt;&lt;b&gt;&lt;div style=&quot;text-align: left&quot;&gt;%c4Name%&lt;/div&gt;&lt;/b&gt;&lt;/font&gt;&lt;div style=&quot;text-align: left&quot;&gt;[%c4Application%]&lt;/div&gt;" id="47">
                    <mxCell style="rounded=1;fontSize=11;whiteSpace=wrap;html=1;dashed=1;arcSize=20;fillColor=none;strokeColor=#666666;fontColor=#333333;labelBackgroundColor=none;align=left;verticalAlign=bottom;labelBorderColor=none;spacingTop=0;spacing=10;dashPattern=8 4;metaEdit=1;rotatable=0;perimeter=rectanglePerimeter;noLabel=0;labelPadding=0;allowArrows=0;connectable=0;expand=0;recursiveResize=0;editable=1;pointerEvents=0;absoluteArcSize=1;points=[[0.25,0,0],[0.5,0,0],[0.75,0,0],[1,0.25,0],[1,0.5,0],[1,0.75,0],[0.75,1,0],[0.5,1,0],[0.25,1,0],[0,0.75,0],[0,0.5,0],[0,0.25,0]];" parent="1" vertex="1">
                        <mxGeometry x="810" y="770" width="660" height="400" as="geometry"/>
                    </mxCell>
                </object>
                <object placeholders="1" c4Type="Relationship" c4Description="Forms checklists&#xa;from" label="&lt;div style=&quot;text-align: left&quot;&gt;&lt;div style=&quot;text-align: center&quot;&gt;&lt;b&gt;%c4Description%&lt;/b&gt;&lt;/div&gt;&lt;/div&gt;" id="52">
                    <mxCell style="endArrow=blockThin;html=1;fontSize=14;fontColor=#404040;strokeWidth=1;endFill=1;strokeColor=#828282;elbow=vertical;metaEdit=1;endSize=14;startSize=14;jumpStyle=arc;jumpSize=16;rounded=0;edgeStyle=orthogonalEdgeStyle;exitX=1;exitY=0.5;exitDx=0;exitDy=0;exitPerimeter=0;entryX=0;entryY=0.5;entryDx=0;entryDy=0;entryPerimeter=0;" parent="1" source="26" target="28" edge="1">
                        <mxGeometry width="240" relative="1" as="geometry">
                            <mxPoint x="1050" y="760" as="sourcePoint"/>
                            <mxPoint x="1290" y="760" as="targetPoint"/>
                            <mxPoint as="offset"/>
                        </mxGeometry>
                    </mxCell>
                </object>
                <object placeholders="1" c4Type="Relationship" c4Description="Creates&#xa;user-specific" label="&lt;div style=&quot;text-align: left&quot;&gt;&lt;div style=&quot;text-align: center&quot;&gt;&lt;b&gt;%c4Description%&lt;/b&gt;&lt;/div&gt;&lt;/div&gt;" id="48">
                    <mxCell style="endArrow=blockThin;html=1;fontSize=14;fontColor=#404040;strokeWidth=1;endFill=1;strokeColor=#828282;elbow=vertical;metaEdit=1;endSize=14;startSize=14;jumpStyle=arc;jumpSize=16;rounded=0;edgeStyle=orthogonalEdgeStyle;exitX=1;exitY=0.5;exitDx=0;exitDy=0;exitPerimeter=0;entryX=0;entryY=0.5;entryDx=0;entryDy=0;entryPerimeter=0;" edge="1" parent="1" source="24" target="26">
                        <mxGeometry x="-0.1667" width="240" relative="1" as="geometry">
                            <mxPoint x="1030" y="740" as="sourcePoint"/>
                            <mxPoint x="1270" y="740" as="targetPoint"/>
                            <Array as="points">
                                <mxPoint x="1130" y="430"/>
                                <mxPoint x="1130" y="430"/>
                            </Array>
                            <mxPoint x="1" as="offset"/>
                        </mxGeometry>
                    </mxCell>
                </object>
                <object placeholders="1" c4Type="Relationship" c4Description="Manages client session state via" label="&lt;div style=&quot;text-align: left&quot;&gt;&lt;div style=&quot;text-align: center&quot;&gt;&lt;b&gt;%c4Description%&lt;/b&gt;&lt;/div&gt;&lt;/div&gt;" id="49">
                    <mxCell style="endArrow=blockThin;html=1;fontSize=14;fontColor=#404040;strokeWidth=1;endFill=1;strokeColor=#828282;elbow=vertical;metaEdit=1;endSize=14;startSize=14;jumpStyle=arc;jumpSize=16;rounded=0;edgeStyle=orthogonalEdgeStyle;exitX=0.331;exitY=0.997;exitDx=0;exitDy=0;exitPerimeter=0;entryX=0.5;entryY=0;entryDx=0;entryDy=0;entryPerimeter=0;" edge="1" parent="1" source="26" target="27">
                        <mxGeometry width="240" relative="1" as="geometry">
                            <mxPoint x="1030" y="740" as="sourcePoint"/>
                            <mxPoint x="1270" y="740" as="targetPoint"/>
                        </mxGeometry>
                    </mxCell>
                </object>
                <object placeholders="1" c4Type="Relationship" c4Description="Gets questions from" label="&lt;div style=&quot;text-align: left&quot;&gt;&lt;div style=&quot;text-align: center&quot;&gt;&lt;b&gt;%c4Description%&lt;/b&gt;&lt;/div&gt;&lt;/div&gt;" id="59">
                    <mxCell style="endArrow=blockThin;html=1;fontSize=14;fontColor=#404040;strokeWidth=1;endFill=1;strokeColor=#828282;elbow=vertical;metaEdit=1;endSize=14;startSize=14;jumpStyle=arc;jumpSize=16;rounded=0;edgeStyle=orthogonalEdgeStyle;exitX=0.666;exitY=0.986;exitDx=0;exitDy=0;exitPerimeter=0;entryX=0.5;entryY=0;entryDx=0;entryDy=0;entryPerimeter=0;" parent="1" source="26" target="29" edge="1">
                        <mxGeometry width="240" relative="1" as="geometry">
                            <mxPoint x="1170" y="600" as="sourcePoint"/>
                            <mxPoint x="1410" y="600" as="targetPoint"/>
                            <Array as="points">
                                <mxPoint x="1360" y="530"/>
                                <mxPoint x="1730" y="530"/>
                            </Array>
                        </mxGeometry>
                    </mxCell>
                </object>
                <object placeholders="1" c4Type="Relationship" c4Description="Uses" label="&lt;div style=&quot;text-align: left&quot;&gt;&lt;div style=&quot;text-align: center&quot;&gt;&lt;b&gt;%c4Description%&lt;/b&gt;&lt;/div&gt;&lt;/div&gt;" id="61">
                    <mxCell style="endArrow=blockThin;html=1;fontSize=14;fontColor=#404040;strokeWidth=1;endFill=1;strokeColor=#828282;elbow=vertical;metaEdit=1;endSize=14;startSize=14;jumpStyle=arc;jumpSize=16;rounded=0;edgeStyle=orthogonalEdgeStyle;entryX=0.5;entryY=0;entryDx=0;entryDy=0;entryPerimeter=0;exitX=0.5;exitY=1;exitDx=0;exitDy=0;exitPerimeter=0;" parent="1" source="57" target="31" edge="1">
                        <mxGeometry width="240" relative="1" as="geometry">
                            <mxPoint x="980" y="720" as="sourcePoint"/>
                            <mxPoint x="1220" y="720" as="targetPoint"/>
                        </mxGeometry>
                    </mxCell>
                </object>
                <object placeholders="1" c4Type="Relationship" c4Description="Reads from / Writes to" label="&lt;div style=&quot;text-align: left&quot;&gt;&lt;div style=&quot;text-align: center&quot;&gt;&lt;b&gt;%c4Description%&lt;/b&gt;&lt;/div&gt;&lt;/div&gt;" id="51">
                    <mxCell style="endArrow=blockThin;html=1;fontSize=14;fontColor=#404040;strokeWidth=1;endFill=1;strokeColor=#828282;elbow=vertical;metaEdit=1;endSize=14;startSize=14;jumpStyle=arc;jumpSize=16;rounded=0;edgeStyle=orthogonalEdgeStyle;exitX=0.5;exitY=1;exitDx=0;exitDy=0;exitPerimeter=0;entryX=0.5;entryY=0;entryDx=0;entryDy=0;entryPerimeter=0;" parent="1" source="30" target="15" edge="1">
                        <mxGeometry width="240" relative="1" as="geometry">
                            <mxPoint x="1030" y="740" as="sourcePoint"/>
                            <mxPoint x="1270" y="740" as="targetPoint"/>
                        </mxGeometry>
                    </mxCell>
                </object>
                <object placeholders="1" c4Type="Relationship" c4Description="Manages client&#xa;progress via" label="&lt;div style=&quot;text-align: left&quot;&gt;&lt;div style=&quot;text-align: center&quot;&gt;&lt;b&gt;%c4Description%&lt;/b&gt;&lt;/div&gt;&lt;/div&gt;" id="78">
                    <mxCell style="endArrow=blockThin;html=1;fontSize=14;fontColor=#404040;strokeWidth=1;endFill=1;strokeColor=#828282;elbow=vertical;metaEdit=1;endSize=14;startSize=14;jumpStyle=arc;jumpSize=16;rounded=0;edgeStyle=orthogonalEdgeStyle;exitX=0;exitY=0.5;exitDx=0;exitDy=0;exitPerimeter=0;entryX=1;entryY=0.5;entryDx=0;entryDy=0;entryPerimeter=0;" parent="1" source="29" target="57" edge="1">
                        <mxGeometry width="240" relative="1" as="geometry">
                            <mxPoint x="1160" y="530" as="sourcePoint"/>
                            <mxPoint x="1450" y="630" as="targetPoint"/>
                        </mxGeometry>
                    </mxCell>
                </object>
                <object placeholders="1" c4Type="Relationship" c4Description="Reads from / Writes to" label="&lt;div style=&quot;text-align: left&quot;&gt;&lt;div style=&quot;text-align: center&quot;&gt;&lt;b&gt;%c4Description%&lt;/b&gt;&lt;/div&gt;&lt;/div&gt;" id="56">
                    <mxCell style="endArrow=blockThin;html=1;fontSize=14;fontColor=#404040;strokeWidth=1;endFill=1;strokeColor=#828282;elbow=vertical;metaEdit=1;endSize=14;startSize=14;jumpStyle=arc;jumpSize=16;rounded=0;edgeStyle=orthogonalEdgeStyle;entryX=0.5;entryY=0;entryDx=0;entryDy=0;entryPerimeter=0;exitX=0.5;exitY=1;exitDx=0;exitDy=0;exitPerimeter=0;" parent="1" source="31" target="14" edge="1">
                        <mxGeometry width="240" relative="1" as="geometry">
                            <mxPoint x="1050" y="760" as="sourcePoint"/>
                            <mxPoint x="1290" y="760" as="targetPoint"/>
                        </mxGeometry>
                    </mxCell>
                </object>
                <object placeholders="1" c4Name="Progress Service" c4Type="Component" c4Technology="Node.js" c4Description="Saves user progress for questions" label="%c4Name%&#xa;[%c4Type%: %c4Technology%]&#xa;&#xa;%c4Description%" id="57">
                    <mxCell style="rounded=1;whiteSpace=wrap;labelBackgroundColor=none;fillColor=#0050ef;align=center;arcSize=6;strokeColor=#001DBC;metaEdit=1;resizable=0;points=[[0.25,0,0],[0.5,0,0],[0.75,0,0],[1,0.25,0],[1,0.5,0],[1,0.75,0],[0.75,1,0],[0.5,1,0],[0.25,1,0],[0,0.75,0],[0,0.5,0],[0,0.25,0]];fontColor=#ffffff;fontSize=16;" parent="1" vertex="1">
                        <mxGeometry x="1200" y="570" width="240" height="120" as="geometry"/>
                    </mxCell>
                </object>
                <object placeholders="1" c4Name="Tree Builder" c4Type="Component" c4Technology="Node.js" c4Description="Constructs tree structure of topics and questions" label="%c4Name%&#xa;[%c4Type%: %c4Technology%]&#xa;&#xa;%c4Description%" id="79">
                    <mxCell style="rounded=1;whiteSpace=wrap;labelBackgroundColor=none;fillColor=#0050ef;align=center;arcSize=6;strokeColor=#001DBC;metaEdit=1;resizable=0;points=[[0.25,0,0],[0.5,0,0],[0.75,0,0],[1,0.25,0],[1,0.5,0],[1,0.75,0],[0.75,1,0],[0.5,1,0],[0.25,1,0],[0,0.75,0],[0,0.5,0],[0,0.25,0]];fontColor=#ffffff;fontSize=16;" vertex="1" parent="1">
                        <mxGeometry x="1610" y="800" width="240" height="120" as="geometry"/>
                    </mxCell>
                </object>
                <object placeholders="1" c4Type="Relationship" c4Description="Updates state from" label="&lt;div style=&quot;text-align: left&quot;&gt;&lt;div style=&quot;text-align: center&quot;&gt;&lt;b&gt;%c4Description%&lt;/b&gt;&lt;/div&gt;&lt;/div&gt;" id="80">
                    <mxCell style="endArrow=blockThin;html=1;fontSize=14;fontColor=#404040;strokeWidth=1;endFill=1;strokeColor=#828282;elbow=vertical;metaEdit=1;endSize=14;startSize=14;jumpStyle=arc;jumpSize=16;rounded=0;edgeStyle=orthogonalEdgeStyle;exitX=1;exitY=0.5;exitDx=0;exitDy=0;exitPerimeter=0;entryX=1;entryY=0.5;entryDx=0;entryDy=0;entryPerimeter=0;" edge="1" parent="1" source="28" target="79">
                        <mxGeometry x="0.0164" width="240" relative="1" as="geometry">
                            <mxPoint x="1390" y="650" as="sourcePoint"/>
                            <mxPoint x="1630" y="650" as="targetPoint"/>
                            <Array as="points">
                                <mxPoint x="1940" y="430"/>
                                <mxPoint x="1940" y="860"/>
                            </Array>
                            <mxPoint as="offset"/>
                        </mxGeometry>
                    </mxCell>
                </object>
                <object placeholders="1" c4Name="Core Layer" c4Type="ContainerScopeBoundary" c4Application="Container" label="&lt;font style=&quot;font-size: 16px&quot;&gt;&lt;b&gt;&lt;div style=&quot;text-align: left&quot;&gt;%c4Name%&lt;/div&gt;&lt;/b&gt;&lt;/font&gt;&lt;div style=&quot;text-align: left&quot;&gt;[%c4Application%]&lt;/div&gt;" id="81">
                    <mxCell style="rounded=1;fontSize=11;whiteSpace=wrap;html=1;dashed=1;arcSize=20;fillColor=none;strokeColor=#666666;fontColor=#333333;labelBackgroundColor=none;align=left;verticalAlign=bottom;labelBorderColor=none;spacingTop=0;spacing=10;dashPattern=8 4;metaEdit=1;rotatable=0;perimeter=rectanglePerimeter;noLabel=0;labelPadding=0;allowArrows=0;connectable=0;expand=0;recursiveResize=0;editable=1;pointerEvents=0;absoluteArcSize=1;points=[[0.25,0,0],[0.5,0,0],[0.75,0,0],[1,0.25,0],[1,0.5,0],[1,0.75,0],[0.75,1,0],[0.5,1,0],[0.25,1,0],[0,0.75,0],[0,0.5,0],[0,0.25,0]];" vertex="1" parent="1">
                        <mxGeometry x="1580" y="770" width="300" height="220" as="geometry"/>
                    </mxCell>
                </object>
                <object placeholders="1" c4Name="Application Layer" c4Type="ContainerScopeBoundary" c4Application="Container" label="&lt;font style=&quot;font-size: 16px&quot;&gt;&lt;b&gt;&lt;div style=&quot;text-align: left&quot;&gt;%c4Name%&lt;/div&gt;&lt;/b&gt;&lt;/font&gt;&lt;div style=&quot;text-align: left&quot;&gt;[%c4Application%]&lt;/div&gt;" id="82">
                    <mxCell style="rounded=1;fontSize=11;whiteSpace=wrap;html=1;dashed=1;arcSize=20;fillColor=none;strokeColor=#666666;fontColor=#333333;labelBackgroundColor=none;align=left;verticalAlign=bottom;labelBorderColor=none;spacingTop=0;spacing=10;dashPattern=8 4;metaEdit=1;rotatable=0;perimeter=rectanglePerimeter;noLabel=0;labelPadding=0;allowArrows=0;connectable=0;expand=0;recursiveResize=0;editable=1;pointerEvents=0;absoluteArcSize=1;points=[[0.25,0,0],[0.5,0,0],[0.75,0,0],[1,0.25,0],[1,0.5,0],[1,0.75,0],[0.75,1,0],[0.5,1,0],[0.25,1,0],[0,0.75,0],[0,0.5,0],[0,0.25,0]];" vertex="1" parent="1">
                        <mxGeometry x="810" y="340" width="1070" height="410" as="geometry"/>
                    </mxCell>
                </object>
                <mxCell id="141" value="" style="rounded=0;whiteSpace=wrap;html=1;fillColor=#B1DDF0;" vertex="1" parent="1">
                    <mxGeometry x="250" y="930" width="30" height="30" as="geometry"/>
                </mxCell>
                <mxCell id="142" value="" style="rounded=0;whiteSpace=wrap;html=1;fillColor=#647687;" vertex="1" parent="1">
                    <mxGeometry x="250" y="970" width="30" height="30" as="geometry"/>
                </mxCell>
                <mxCell id="143" value="" style="rounded=0;whiteSpace=wrap;html=1;dashed=1;dashPattern=8 8;" vertex="1" parent="1">
                    <mxGeometry x="250" y="1010" width="30" height="30" as="geometry"/>
                </mxCell>
                <mxCell id="144" value="" style="rounded=0;whiteSpace=wrap;html=1;fillColor=#0050EF;" vertex="1" parent="1">
                    <mxGeometry x="250" y="1050" width="30" height="30" as="geometry"/>
                </mxCell>
                <mxCell id="145" value="Person" style="text;html=1;align=center;verticalAlign=middle;whiteSpace=wrap;rounded=0;" vertex="1" parent="1">
                    <mxGeometry x="190" y="930" width="60" height="30" as="geometry"/>
                </mxCell>
                <mxCell id="146" value="External Sofware System" style="text;html=1;align=center;verticalAlign=middle;whiteSpace=wrap;rounded=0;" vertex="1" parent="1">
                    <mxGeometry x="100" y="970" width="150" height="30" as="geometry"/>
                </mxCell>
                <mxCell id="147" value="Internal Sofware System / Container" style="text;html=1;align=center;verticalAlign=middle;whiteSpace=wrap;rounded=0;" vertex="1" parent="1">
                    <mxGeometry x="40" y="1010" width="210" height="30" as="geometry"/>
                </mxCell>
                <mxCell id="148" value="Component" style="text;html=1;align=center;verticalAlign=middle;whiteSpace=wrap;rounded=0;" vertex="1" parent="1">
                    <mxGeometry x="170" y="1050" width="80" height="30" as="geometry"/>
                </mxCell>
                <mxCell id="149" value="&lt;b&gt;&lt;font style=&quot;font-size: 32px;&quot;&gt;Legend&lt;/font&gt;&lt;/b&gt;" style="text;html=1;align=center;verticalAlign=middle;whiteSpace=wrap;rounded=0;" vertex="1" parent="1">
                    <mxGeometry x="143.75" y="885" width="60" height="30" as="geometry"/>
                </mxCell>
                <mxCell id="151" value="" style="endArrow=none;html=1;exitX=0.003;exitY=0.179;exitDx=0;exitDy=0;exitPerimeter=0;entryX=1.003;entryY=0.174;entryDx=0;entryDy=0;entryPerimeter=0;" edge="1" parent="1" source="150" target="150">
                    <mxGeometry width="50" height="50" relative="1" as="geometry">
                        <mxPoint x="310" y="860" as="sourcePoint"/>
                        <mxPoint x="360" y="810" as="targetPoint"/>
                    </mxGeometry>
                </mxCell>
            </root>
        </mxGraphModel>
    </diagram>
</mxfile>